<?xml version="1.0" standalone="no"?><!DOCTYPE svg PUBLIC "-//W3C//DTD SVG 1.1//EN" "http://www.w3.org/Graphics/SVG/1.1/DTD/svg11.dtd"><svg class="icon" width="200px" height="200.00px" viewBox="0 0 1024 1024" version="1.1" xmlns="http://www.w3.org/2000/svg"><path fill="#d81e06" d="M779.5 770.7c0 33.9-27.6 61.5-61.5 61.5h-66.8V525.6H387.8v306.7H321c-33.9 0-61.5-27.6-61.5-61.5V520.3h-42.7v250.4c0 57.5 46.8 104.3 104.3 104.3h109.5V568.3h177.9V875H718c57.5 0 104.3-46.8 104.3-104.3V520.3h-42.7v250.4zM589.7 182.7c-20.2-20.2-47.1-31.3-75.7-31.3s-55.5 11.1-75.7 31.3L98.8 522.2l30.2 30.2L468.5 213c25.1-25.1 65.9-25.1 90.9 0L899 552.4l30.2-30.2-339.5-339.5z" /></svg>